  <svg
              xmlns="http://www.w3.org/2000/svg"
              width="20"
              height="20"
              viewBox="0 -10 256 256"
            >
              <g transform="translate(1.41 1.41) scale(2.81 2.81)">
                <path
                  d="M 45 90 c -2.761 0 -5 -2.238 -5 -5 V 5 c 0 -2.761 2.239 -5 5 -5 c 2.762 0 5 2.239 5 5 v 80 C 50 87.762 47.762 90 45 90 z"
                  fill="#ffffff"
                />
                <path
                  d="M 85 50 H 5 c -2.761 0 -5 -2.238 -5 -5 c 0 -2.761 2.239 -5 5 -5 h 80 c 2.762 0 5 2.239 5 5 C 90 47.762 87.762 50 85 50 z"
                  fill="#ffffff"
                />
              </g>
            </svg>
