  <svg
              xmlns="http://www.w3.org/2000/svg"
              viewBox="0 0 256 256"
              width="24"
              height="24"
            >
              <g transform="translate(1.41 1.41) scale(2.81 2.81)">
                <path
                  d="M47.286 59.801L30.199 42.715c-4.37-4.37-4.37-11.455 0-15.825 2.596-2.596 2.86-6.715.618-9.621L22.844 6.934c-3.304-4.283-9.62-4.689-13.445-.864-12.532 12.532-12.532 32.85 0 45.382l29.149 29.149c12.532 12.532 32.85 12.532 45.382 0 3.825-3.825 3.42-10.14-.864-13.445l-10.335-7.973c-2.906-2.242-7.026-1.978-9.621.618C58.74 64.171 51.655 64.171 47.286 59.801z"
                  fill="#fff"
                />
                <path
                  d="M86.557 50.164c-1.901 0-3.443-1.542-3.443-3.443 0-21.965-17.87-39.836-39.836-39.836-1.901 0-3.443-1.541-3.443-3.443S41.377 0 43.279 0C69.041 0 90 20.959 90 46.721c0 1.901-1.542 3.443-3.443 3.443z"
                  fill="#fff"
                />
                <path
                  d="M71.699 50.164c-1.901 0-3.443-1.542-3.443-3.443 0-13.772-11.205-24.977-24.977-24.977-1.901 0-3.443-1.541-3.443-3.443 0-1.901 1.541-3.443 3.443-3.443 17.569 0 31.863 14.294 31.863 31.863 0 1.901-1.542 3.443-3.443 3.443z"
                  fill="#fff"
                />
              </g>
            </svg>
           
