<svg xmlns="http://www.w3.org/2000/svg" width="20" height="20" viewBox="0 0 256 256">
    <g transform="translate(1.41 1.41) scale(2.81 2.81)">
        <path d="M69.671 88.046c-.808 0-1.62-.195-2.37-.59L45 75.732 22.7 87.456c-1.727.907-3.779.757-5.356-.388-1.577-1.146-2.352-3.052-2.023-4.972l4.259-24.832L1.539 39.678c-1.396-1.361-1.889-3.358-1.287-5.213.603-1.854 2.176-3.181 4.105-3.461l24.932-3.622L40.44 4.79c.863-1.749 2.61-2.834 4.559-2.834 1.949 0 3.696 1.086 4.559 2.834l11.15 22.592 24.932 3.623c1.93.28 3.503 1.606 4.105 3.461.603 1.854.109 3.851-1.287 5.213L70.419 57.264l4.26 24.832c.329 1.921-0.446 3.827-2.023 4.972C71.764 87.717 70.721 88.046 69.671 88.046zM7.055 36.676l17.058 16.628c1.198 1.167 1.746 2.85 1.462 4.502l-4.027 23.479 21.086-11.086c1.481-.779 3.25-.779 4.732 0l21.085 11.086-4.027-23.48c-.283-1.649.264-3.333 1.463-4.501l17.058-16.628L59.372 33.25c-1.658-.242-3.089-1.282-3.829-2.783L45 9.106 34.457 30.468c-.74 1.5-2.171 2.54-3.827 2.782L7.055 36.676zM84.779 36.942h.011H84.779zM44.18 7.444c0 0 0 .001.001.002L44.18 7.444c0 .001 0 .001 0 0z" fill="rgb(94, 94, 238)" />
    </g>
</svg>
